<svg width="179" height="40" viewBox="0 0 179 40" fill="none" xmlns="http://www.w3.org/2000/svg">
<path d="M16.2806 16.0407C18.4359 16.0407 20.5031 16.8818 22.0281 18.3792C23.5532 19.8766 24.4115 21.9079 24.4146 24.0271H32.5601V0H24.3858V10.1738C22.2255 8.94721 19.8071 8.22592 17.3178 8.06577C14.8285 7.90563 12.3352 8.31092 10.0307 9.25028C7.7263 10.1896 5.67265 11.6379 4.02879 13.4828C2.38492 15.3278 1.19494 17.52 0.550977 19.8897C-0.092986 22.2594 -0.173655 24.743 0.315217 27.1483C0.804089 29.5535 1.84938 31.8159 3.37017 33.7602C4.89096 35.7046 6.84645 37.2787 9.08522 38.3607C11.324 39.4427 13.786 40.0036 16.2806 40H32.5543V32.0023H16.2346C14.0819 31.9963 12.0198 31.1497 10.502 29.6487C8.98409 28.1478 8.13479 26.1155 8.14089 23.9989C8.14698 21.8822 9.00799 19.8547 10.5345 18.3622C12.061 16.8698 14.1279 16.0347 16.2806 16.0407Z" fill="#00A788"/>
<path d="M171.056 12.0889C167.296 12.0889 165.221 15.141 165.215 17.9784C165.22 18.9431 165.463 19.8923 165.923 20.744C166.384 21.5958 167.048 22.3246 167.859 22.8674L164.502 27.9543H169.153L171.855 23.8226H175.097V27.9543H179V12.1284L171.056 12.0889ZM175.079 17.9218V20.2166H171.153C170.871 20.198 170.596 20.1246 170.343 20.0006C170.09 19.8766 169.864 19.7045 169.679 19.4943C169.494 19.284 169.353 19.0398 169.265 18.7757C169.177 18.5116 169.142 18.2329 169.164 17.9558C169.164 16.6275 170.124 15.6327 171.159 15.6327H175.079V17.9218Z" fill="#00A788"/>
<path d="M159.315 12.4337V12.1454H155.435V24.3484H152.457C152.016 24.3485 151.579 24.2619 151.172 24.0938C150.765 23.9257 150.396 23.6794 150.087 23.3693C149.778 23.0592 149.535 22.6917 149.373 22.2881C149.21 21.8846 149.131 21.4532 149.14 21.0193V12.1172H145.26V21.3358C145.374 23.1202 146.175 24.7949 147.501 26.0192C148.826 27.2435 150.576 27.9254 152.394 27.9261H161.218V24.3936H159.304L159.315 12.4337Z" fill="#00A788"/>
<path d="M136.697 12.0723V24.343H133.725C133.282 24.3423 132.844 24.2548 132.435 24.0855C132.027 23.9162 131.657 23.6685 131.347 23.357C131.037 23.0454 130.793 22.6762 130.63 22.271C130.467 21.8658 130.388 21.4326 130.397 20.9969V12.0723H126.511V21.3191C126.627 23.1085 127.431 24.7876 128.76 26.0149C130.09 27.2422 131.844 27.9257 133.668 27.9264H140.595V12.3605V12.0723H136.697Z" fill="#00A788"/>
<path d="M117.968 18.2448H111.599V12.084H107.69L107.696 27.9269H111.599V21.7887H117.968V27.9269H121.877V12.1066H117.968V18.2448Z" fill="#00A788"/>
<path d="M90.1997 27.9265V12.1006H97.7301C101.49 12.1006 103.571 15.1527 103.576 17.9901C103.584 18.7497 103.438 19.5032 103.148 20.2072C102.857 20.9111 102.428 21.5515 101.884 22.0913C101.341 22.631 100.694 23.0595 99.9807 23.3519C99.2676 23.6443 98.5027 23.7948 97.7301 23.7948H94.0856V27.9152L90.1997 27.9265ZM97.6726 20.234C97.9545 20.2154 98.2298 20.142 98.4826 20.0179C98.7353 19.8938 98.9605 19.7216 99.145 19.5113C99.3296 19.301 99.4697 19.0567 99.5574 18.7926C99.6451 18.5286 99.6786 18.25 99.6558 17.9731C99.6558 16.6449 98.7016 15.6501 97.6611 15.6501H94.1144V20.2453L97.6726 20.234Z" fill="#00A788"/>
<path d="M85.441 18.3803C85.3376 16.5932 84.5428 14.9128 83.2196 13.6836C81.8963 12.4544 80.1449 11.7695 78.3245 11.7695C76.5041 11.7695 74.7527 12.4544 73.4294 13.6836C72.1062 14.9128 71.3114 16.5932 71.208 18.3803V27.9267H75.1399V24.8689H81.5321V27.921H85.4697V18.3803H85.441ZM75.0939 18.5046V18.3294C75.0939 17.4959 75.4306 16.6966 76.03 16.1072C76.6294 15.5179 77.4423 15.1868 78.29 15.1868C79.1377 15.1868 79.9506 15.5179 80.55 16.1072C81.1494 16.6966 81.4861 17.4959 81.4861 18.3294V18.4424C81.4886 18.4574 81.4886 18.4727 81.4861 18.4876V21.3137H75.1227L75.0939 18.5046Z" fill="#00A788"/>
<path d="M65.103 18.6512V18.3629C64.9978 16.5426 64.1753 14.8343 62.8101 13.6005C61.445 12.3667 59.6445 11.7046 57.791 11.7546C55.9374 11.8046 54.1766 12.5629 52.8823 13.8684C51.588 15.174 50.862 16.924 50.8585 18.7472V24.3259H49.134H48.8408V27.898H66.7815H67.0747V24.3485H65.1088L65.103 18.6512ZM57.952 15.2599C58.374 15.2599 58.7919 15.3416 59.1817 15.5004C59.5716 15.6592 59.9258 15.8919 60.2242 16.1853C60.5226 16.4787 60.7593 16.827 60.9208 17.2103C61.0822 17.5937 61.1654 18.0045 61.1654 18.4194C61.1654 18.4194 61.1654 23.1107 61.1654 24.3372H54.7674V18.4025C54.7612 17.9891 54.8393 17.5786 54.997 17.1953C55.1547 16.8121 55.3889 16.4637 55.6857 16.1708C55.9825 15.878 56.3359 15.6465 56.7252 15.49C57.1144 15.3336 57.5315 15.2553 57.952 15.2599Z" fill="#00A788"/>
</svg>
